<svg width="32" height="32" viewBox="0 0 32 32" fill="none" xmlns="http://www.w3.org/2000/svg">
<circle cx="16" cy="16" r="15.25" stroke="#333333" stroke-width="1.5"/>
<path d="M21 9H11C9.89543 9 9 9.89543 9 11V11.0871C9 11.6363 9.22583 12.1613 9.62451 12.539L13.8199 16.5136C14.2186 16.8913 14.4444 17.4163 14.4444 17.9655V21.5263V21.7012C14.4444 22.1917 15.0312 22.4441 15.3873 22.1068L16 21.5263L16.931 20.6443C17.3297 20.2666 17.5556 19.7416 17.5556 19.1924V17.9655C17.5556 17.4163 17.7814 16.8913 18.1801 16.5136L22.3755 12.539C22.7742 12.1613 23 11.6363 23 11.0871V11C23 9.89543 22.1046 9 21 9Z" stroke="#333333" stroke-width="1.5" stroke-linecap="round" stroke-linejoin="round"/>
</svg>
