<svg width="165" height="29" viewBox="0 0 165 29" fill="none" xmlns="http://www.w3.org/2000/svg">
<rect width="164.444" height="29" rx="4" fill="#F5F5F5"/>
<path d="M17.5556 6.5H16.2222H13C11.3431 6.5 10 7.84315 10 9.5V19.5C10 21.1569 11.3431 22.5 13 22.5H19.4444C21.1013 22.5 22.4444 21.1569 22.4444 19.5V11.5M17.5556 6.5L22.4444 11.5M17.5556 6.5V10.5C17.5556 11.0523 18.0033 11.5 18.5556 11.5H22.4444" stroke="#333333" stroke-width="1.5" stroke-linecap="round" stroke-linejoin="round"/>
<path d="M13.5557 15.3889H18.889" stroke="#333333" stroke-width="1.5" stroke-linecap="round" stroke-linejoin="round"/>
<path d="M13.5557 18.9445H18.889" stroke="#333333" stroke-width="1.5" stroke-linecap="round" stroke-linejoin="round"/>
<path d="M39.6443 20.112C39.4523 20.112 39.2977 20.0693 39.1803 19.984C39.0737 19.8987 39.0097 19.7813 38.9883 19.632C38.967 19.4827 38.999 19.3173 39.0843 19.136L43.4523 9.248C43.5483 9.024 43.671 8.864 43.8203 8.768C43.9697 8.66133 44.135 8.608 44.3163 8.608C44.4977 8.608 44.6577 8.66133 44.7963 8.768C44.9457 8.864 45.0737 9.024 45.1803 9.248L49.5483 19.136C49.6337 19.3173 49.6657 19.488 49.6443 19.648C49.6337 19.7973 49.575 19.9147 49.4683 20C49.3617 20.0747 49.2123 20.112 49.0203 20.112C48.807 20.112 48.6363 20.0587 48.5083 19.952C48.3803 19.8347 48.2683 19.6693 48.1723 19.456L47.0363 16.8L47.7243 17.184H40.8763L41.5643 16.8L40.4283 19.456C40.3323 19.6907 40.2257 19.8613 40.1083 19.968C39.991 20.064 39.8363 20.112 39.6443 20.112ZM44.2843 10.4L41.7883 16.304L41.4043 15.968H47.1963L46.8283 16.304L44.3163 10.4H44.2843ZM54.4046 20.144C53.7219 20.144 53.1193 19.984 52.5966 19.664C52.0846 19.3333 51.6846 18.864 51.3966 18.256C51.1086 17.6373 50.9646 16.9173 50.9646 16.096C50.9646 15.264 51.1033 14.5493 51.3806 13.952C51.6686 13.344 52.0686 12.88 52.5806 12.56C53.1033 12.2293 53.7113 12.064 54.4046 12.064C55.0979 12.064 55.6953 12.24 56.1966 12.592C56.6979 12.9333 57.0339 13.392 57.2046 13.968H57.0286V9.344C57.0286 9.09867 57.0873 8.91733 57.2046 8.8C57.3326 8.672 57.5139 8.608 57.7486 8.608C57.9833 8.608 58.1646 8.672 58.2926 8.8C58.4206 8.91733 58.4846 9.09867 58.4846 9.344V19.36C58.4846 19.6053 58.4206 19.792 58.2926 19.92C58.1646 20.048 57.9833 20.112 57.7486 20.112C57.5246 20.112 57.3486 20.048 57.2206 19.92C57.0926 19.792 57.0286 19.6053 57.0286 19.36V17.904L57.2046 18.192C57.0446 18.7893 56.7086 19.264 56.1966 19.616C55.6953 19.968 55.0979 20.144 54.4046 20.144ZM54.7406 18.992C55.2099 18.992 55.6153 18.88 55.9566 18.656C56.3086 18.432 56.5753 18.1067 56.7566 17.68C56.9486 17.2533 57.0446 16.7253 57.0446 16.096C57.0446 15.1573 56.8366 14.4427 56.4206 13.952C56.0046 13.4613 55.4446 13.216 54.7406 13.216C54.2819 13.216 53.8766 13.328 53.5246 13.552C53.1833 13.7653 52.9166 14.0853 52.7246 14.512C52.5326 14.9387 52.4366 15.4667 52.4366 16.096C52.4366 17.0347 52.6446 17.7547 53.0606 18.256C53.4873 18.7467 54.0473 18.992 54.7406 18.992ZM63.9552 20.144C63.2725 20.144 62.6699 19.984 62.1472 19.664C61.6352 19.3333 61.2352 18.864 60.9472 18.256C60.6592 17.6373 60.5152 16.9173 60.5152 16.096C60.5152 15.264 60.6539 14.5493 60.9312 13.952C61.2192 13.344 61.6192 12.88 62.1312 12.56C62.6539 12.2293 63.2619 12.064 63.9552 12.064C64.6485 12.064 65.2459 12.24 65.7472 12.592C66.2485 12.9333 66.5845 13.392 66.7552 13.968H66.5792V9.344C66.5792 9.09867 66.6379 8.91733 66.7552 8.8C66.8832 8.672 67.0645 8.608 67.2992 8.608C67.5339 8.608 67.7152 8.672 67.8432 8.8C67.9712 8.91733 68.0352 9.09867 68.0352 9.344V19.36C68.0352 19.6053 67.9712 19.792 67.8432 19.92C67.7152 20.048 67.5339 20.112 67.2992 20.112C67.0752 20.112 66.8992 20.048 66.7712 19.92C66.6432 19.792 66.5792 19.6053 66.5792 19.36V17.904L66.7552 18.192C66.5952 18.7893 66.2592 19.264 65.7472 19.616C65.2459 19.968 64.6485 20.144 63.9552 20.144ZM64.2912 18.992C64.7605 18.992 65.1659 18.88 65.5072 18.656C65.8592 18.432 66.1259 18.1067 66.3072 17.68C66.4992 17.2533 66.5952 16.7253 66.5952 16.096C66.5952 15.1573 66.3872 14.4427 65.9712 13.952C65.5552 13.4613 64.9952 13.216 64.2912 13.216C63.8325 13.216 63.4272 13.328 63.0752 13.552C62.7339 13.7653 62.4672 14.0853 62.2752 14.512C62.0832 14.9387 61.9872 15.4667 61.9872 16.096C61.9872 17.0347 62.1952 17.7547 62.6112 18.256C63.0379 18.7467 63.5979 18.992 64.2912 18.992ZM71.2818 20.112C71.0365 20.112 70.8498 20.048 70.7218 19.92C70.5938 19.792 70.5298 19.6053 70.5298 19.36V12.832C70.5298 12.5867 70.5938 12.4053 70.7218 12.288C70.8498 12.16 71.0258 12.096 71.2498 12.096C71.4738 12.096 71.6445 12.16 71.7618 12.288C71.8898 12.4053 71.9538 12.5867 71.9538 12.832V14.064H71.7938C71.9645 13.424 72.2845 12.9387 72.7538 12.608C73.2232 12.2773 73.8152 12.0907 74.5298 12.048C74.7005 12.0373 74.8392 12.08 74.9458 12.176C75.0525 12.2613 75.1112 12.4107 75.1218 12.624C75.1325 12.8267 75.0845 12.992 74.9778 13.12C74.8712 13.2373 74.7058 13.3067 74.4818 13.328L74.1938 13.344C73.4898 13.4187 72.9458 13.648 72.5618 14.032C72.1885 14.416 72.0018 14.944 72.0018 15.616V19.36C72.0018 19.6053 71.9378 19.792 71.8098 19.92C71.6925 20.048 71.5165 20.112 71.2818 20.112ZM80.0242 20.144C79.1815 20.144 78.4562 19.984 77.8482 19.664C77.2509 19.3333 76.7869 18.8693 76.4562 18.272C76.1255 17.664 75.9602 16.9493 75.9602 16.128C75.9602 15.3173 76.1202 14.608 76.4402 14C76.7709 13.392 77.2189 12.9173 77.7842 12.576C78.3602 12.2347 79.0162 12.064 79.7522 12.064C80.2749 12.064 80.7442 12.1547 81.1602 12.336C81.5869 12.5067 81.9495 12.7573 82.2482 13.088C82.5469 13.4187 82.7709 13.824 82.9202 14.304C83.0802 14.7733 83.1602 15.3067 83.1602 15.904C83.1602 16.0747 83.1069 16.208 83.0002 16.304C82.9042 16.3893 82.7602 16.432 82.5682 16.432H77.0962V15.504H82.2002L81.9282 15.728C81.9282 15.1733 81.8429 14.704 81.6722 14.32C81.5122 13.9253 81.2722 13.6267 80.9522 13.424C80.6429 13.2213 80.2535 13.12 79.7842 13.12C79.2722 13.12 78.8349 13.2427 78.4722 13.488C78.1095 13.7227 77.8322 14.0587 77.6402 14.496C77.4482 14.9227 77.3522 15.4187 77.3522 15.984V16.08C77.3522 17.04 77.5815 17.7653 78.0402 18.256C78.4989 18.7467 79.1602 18.992 80.0242 18.992C80.3655 18.992 80.7122 18.9493 81.0642 18.864C81.4269 18.7787 81.7735 18.624 82.1042 18.4C82.2642 18.304 82.4082 18.2613 82.5362 18.272C82.6749 18.272 82.7869 18.3147 82.8722 18.4C82.9575 18.4747 83.0109 18.5707 83.0322 18.688C83.0535 18.7947 83.0375 18.912 82.9842 19.04C82.9309 19.168 82.8295 19.28 82.6802 19.376C82.3282 19.6213 81.9069 19.8133 81.4162 19.952C80.9362 20.08 80.4722 20.144 80.0242 20.144ZM87.8191 20.144C87.3391 20.144 86.8538 20.0907 86.3631 19.984C85.8831 19.8667 85.4298 19.6693 85.0031 19.392C84.8858 19.3173 84.8004 19.2267 84.7471 19.12C84.7044 19.0027 84.6884 18.8907 84.6991 18.784C84.7204 18.6667 84.7684 18.5653 84.8431 18.48C84.9178 18.3947 85.0084 18.3467 85.1151 18.336C85.2324 18.3147 85.3551 18.3413 85.4831 18.416C85.8991 18.6507 86.2991 18.816 86.6831 18.912C87.0778 19.008 87.4671 19.056 87.8511 19.056C88.4378 19.056 88.8804 18.9493 89.1791 18.736C89.4778 18.5227 89.6271 18.24 89.6271 17.888C89.6271 17.5893 89.5258 17.36 89.3231 17.2C89.1311 17.0293 88.8271 16.9013 88.4111 16.816L86.9231 16.512C86.2618 16.3627 85.7604 16.1173 85.4191 15.776C85.0884 15.424 84.9231 14.976 84.9231 14.432C84.9231 13.952 85.0511 13.536 85.3071 13.184C85.5738 12.8213 85.9418 12.544 86.4111 12.352C86.8804 12.16 87.4191 12.064 88.0271 12.064C88.4964 12.064 88.9391 12.128 89.3551 12.256C89.7818 12.3733 90.1658 12.5547 90.5071 12.8C90.6351 12.8747 90.7151 12.9707 90.7471 13.088C90.7898 13.1947 90.7951 13.3067 90.7631 13.424C90.7418 13.5307 90.6938 13.6213 90.6191 13.696C90.5444 13.7707 90.4484 13.8187 90.3311 13.84C90.2138 13.8507 90.0858 13.8187 89.9471 13.744C89.6378 13.5307 89.3178 13.3813 88.9871 13.296C88.6671 13.2 88.3471 13.152 88.0271 13.152C87.4511 13.152 87.0138 13.264 86.7151 13.488C86.4271 13.712 86.2831 14.0053 86.2831 14.368C86.2831 14.6453 86.3684 14.8747 86.5391 15.056C86.7204 15.2373 87.0031 15.3707 87.3871 15.456L88.8751 15.76C89.5684 15.9093 90.0911 16.1493 90.4431 16.48C90.7951 16.8 90.9711 17.2373 90.9711 17.792C90.9711 18.5173 90.6831 19.0933 90.1071 19.52C89.5418 19.936 88.7791 20.144 87.8191 20.144ZM95.7135 20.144C95.2335 20.144 94.7481 20.0907 94.2575 19.984C93.7775 19.8667 93.3241 19.6693 92.8975 19.392C92.7801 19.3173 92.6948 19.2267 92.6415 19.12C92.5988 19.0027 92.5828 18.8907 92.5935 18.784C92.6148 18.6667 92.6628 18.5653 92.7375 18.48C92.8121 18.3947 92.9028 18.3467 93.0095 18.336C93.1268 18.3147 93.2495 18.3413 93.3775 18.416C93.7935 18.6507 94.1935 18.816 94.5775 18.912C94.9721 19.008 95.3615 19.056 95.7455 19.056C96.3321 19.056 96.7748 18.9493 97.0735 18.736C97.3721 18.5227 97.5215 18.24 97.5215 17.888C97.5215 17.5893 97.4201 17.36 97.2175 17.2C97.0255 17.0293 96.7215 16.9013 96.3055 16.816L94.8175 16.512C94.1561 16.3627 93.6548 16.1173 93.3135 15.776C92.9828 15.424 92.8175 14.976 92.8175 14.432C92.8175 13.952 92.9455 13.536 93.2015 13.184C93.4681 12.8213 93.8361 12.544 94.3055 12.352C94.7748 12.16 95.3135 12.064 95.9215 12.064C96.3908 12.064 96.8335 12.128 97.2495 12.256C97.6761 12.3733 98.0601 12.5547 98.4015 12.8C98.5295 12.8747 98.6095 12.9707 98.6415 13.088C98.6841 13.1947 98.6895 13.3067 98.6575 13.424C98.6361 13.5307 98.5881 13.6213 98.5135 13.696C98.4388 13.7707 98.3428 13.8187 98.2255 13.84C98.1081 13.8507 97.9801 13.8187 97.8415 13.744C97.5321 13.5307 97.2121 13.3813 96.8815 13.296C96.5615 13.2 96.2415 13.152 95.9215 13.152C95.3455 13.152 94.9081 13.264 94.6095 13.488C94.3215 13.712 94.1775 14.0053 94.1775 14.368C94.1775 14.6453 94.2628 14.8747 94.4335 15.056C94.6148 15.2373 94.8975 15.3707 95.2815 15.456L96.7695 15.76C97.4628 15.9093 97.9855 16.1493 98.3375 16.48C98.6895 16.8 98.8655 17.2373 98.8655 17.792C98.8655 18.5173 98.5775 19.0933 98.0015 19.52C97.4361 19.936 96.6735 20.144 95.7135 20.144ZM100.394 20.928C100.244 20.928 100.122 20.8853 100.026 20.8C99.9297 20.7147 99.8817 20.6027 99.8817 20.464C99.8817 20.336 99.9297 20.224 100.026 20.128C100.122 20.0427 100.244 20 100.394 20H106.97C107.108 20 107.226 20.0427 107.322 20.128C107.418 20.224 107.466 20.336 107.466 20.464C107.466 20.6027 107.418 20.7147 107.322 20.8C107.226 20.8853 107.108 20.928 106.97 20.928H100.394ZM109.722 22.992C109.498 22.992 109.322 22.928 109.194 22.8C109.066 22.672 109.002 22.4907 109.002 22.256V12.832C109.002 12.5867 109.066 12.4053 109.194 12.288C109.322 12.16 109.498 12.096 109.722 12.096C109.956 12.096 110.132 12.16 110.25 12.288C110.378 12.4053 110.442 12.5867 110.442 12.832V14.288L110.266 14C110.436 13.4133 110.772 12.944 111.274 12.592C111.775 12.24 112.378 12.064 113.082 12.064C113.775 12.064 114.378 12.2293 114.89 12.56C115.402 12.88 115.802 13.344 116.09 13.952C116.378 14.5493 116.522 15.264 116.522 16.096C116.522 16.9173 116.378 17.6373 116.09 18.256C115.812 18.864 115.412 19.3333 114.89 19.664C114.378 19.984 113.775 20.144 113.082 20.144C112.388 20.144 111.791 19.968 111.29 19.616C110.788 19.264 110.452 18.8 110.282 18.224H110.458V22.256C110.458 22.4907 110.394 22.672 110.266 22.8C110.138 22.928 109.956 22.992 109.722 22.992ZM112.746 18.992C113.204 18.992 113.604 18.88 113.946 18.656C114.298 18.432 114.57 18.1067 114.762 17.68C114.954 17.2533 115.05 16.7253 115.05 16.096C115.05 15.1573 114.842 14.4427 114.426 13.952C114.01 13.4613 113.45 13.216 112.746 13.216C112.276 13.216 111.866 13.328 111.514 13.552C111.172 13.7653 110.906 14.0853 110.714 14.512C110.532 14.9387 110.442 15.4667 110.442 16.096C110.442 17.0347 110.65 17.7547 111.066 18.256C111.482 18.7467 112.042 18.992 112.746 18.992ZM121.528 20.144C120.846 20.144 120.243 19.984 119.72 19.664C119.208 19.3333 118.808 18.864 118.52 18.256C118.232 17.6373 118.088 16.9173 118.088 16.096C118.088 15.264 118.227 14.5493 118.504 13.952C118.792 13.344 119.192 12.88 119.704 12.56C120.227 12.2293 120.835 12.064 121.528 12.064C122.222 12.064 122.819 12.24 123.32 12.592C123.822 12.9333 124.158 13.392 124.328 13.968H124.152V9.344C124.152 9.09867 124.211 8.91733 124.328 8.8C124.456 8.672 124.638 8.608 124.872 8.608C125.107 8.608 125.288 8.672 125.416 8.8C125.544 8.91733 125.608 9.09867 125.608 9.344V19.36C125.608 19.6053 125.544 19.792 125.416 19.92C125.288 20.048 125.107 20.112 124.872 20.112C124.648 20.112 124.472 20.048 124.344 19.92C124.216 19.792 124.152 19.6053 124.152 19.36V17.904L124.328 18.192C124.168 18.7893 123.832 19.264 123.32 19.616C122.819 19.968 122.222 20.144 121.528 20.144ZM121.864 18.992C122.334 18.992 122.739 18.88 123.08 18.656C123.432 18.432 123.699 18.1067 123.88 17.68C124.072 17.2533 124.168 16.7253 124.168 16.096C124.168 15.1573 123.96 14.4427 123.544 13.952C123.128 13.4613 122.568 13.216 121.864 13.216C121.406 13.216 121 13.328 120.648 13.552C120.307 13.7653 120.04 14.0853 119.848 14.512C119.656 14.9387 119.56 15.4667 119.56 16.096C119.56 17.0347 119.768 17.7547 120.184 18.256C120.611 18.7467 121.171 18.992 121.864 18.992ZM129.287 20.112C129.052 20.112 128.871 20.048 128.743 19.92C128.615 19.792 128.551 19.6053 128.551 19.36V13.328H127.591C127.399 13.328 127.25 13.28 127.143 13.184C127.036 13.0773 126.983 12.9387 126.983 12.768C126.983 12.5867 127.036 12.448 127.143 12.352C127.25 12.256 127.399 12.208 127.591 12.208H128.951L128.551 12.592V12C128.551 10.9653 128.802 10.1813 129.303 9.648C129.815 9.104 130.562 8.78933 131.543 8.704L132.039 8.672C132.199 8.65067 132.327 8.67733 132.423 8.752C132.519 8.816 132.583 8.90133 132.615 9.008C132.647 9.11467 132.647 9.22667 132.615 9.344C132.594 9.45067 132.546 9.54667 132.471 9.632C132.396 9.71733 132.3 9.76533 132.183 9.776L131.831 9.792C131.191 9.84533 130.727 10.0373 130.439 10.368C130.151 10.688 130.007 11.168 130.007 11.808V12.448L129.799 12.208H131.639C131.842 12.208 131.996 12.256 132.103 12.352C132.21 12.448 132.263 12.5867 132.263 12.768C132.263 12.9387 132.21 13.0773 132.103 13.184C131.996 13.28 131.842 13.328 131.639 13.328H130.007V19.36C130.007 19.8613 129.767 20.112 129.287 20.112Z" fill="black"/>
<path d="M148.444 11.5L154.444 17.5" stroke="#333333" stroke-width="1.5" stroke-linecap="round" stroke-linejoin="round"/>
<path d="M154.444 11.5L148.444 17.5" stroke="#333333" stroke-width="1.5" stroke-linecap="round" stroke-linejoin="round"/>
</svg>
