<svg width="32" height="32" viewBox="0 0 32 32" fill="none" xmlns="http://www.w3.org/2000/svg">
<circle cx="16" cy="16" r="15.25" stroke="#333333" stroke-width="1.5"/>
<path d="M11.333 12.1111V11C11.333 9.89543 12.2284 9 13.333 9H18.6663C19.7709 9 20.6663 9.89543 20.6663 11V12.1111" stroke="#333333" stroke-width="1.5" stroke-linecap="round"/>
<path d="M12.1111 19.8889V19.8889C11.0748 19.8889 10.5566 19.8889 10.1548 19.7015C9.72861 19.5028 9.3861 19.1603 9.18738 18.7341C9 18.3323 9 17.8141 9 16.7778V16C9 14.2222 9 13.3334 9.52544 12.7599C9.56476 12.717 9.60592 12.6759 9.64882 12.6366C10.2222 12.1111 11.1111 12.1111 12.8889 12.1111H19.1111C20.8889 12.1111 21.7778 12.1111 22.3512 12.6366C22.3941 12.6759 22.4352 12.717 22.4746 12.7599C23 13.3334 23 14.2222 23 16V16.7778C23 17.8141 23 18.3323 22.8126 18.7341C22.6139 19.1603 22.2714 19.5028 21.8452 19.7015C21.4434 19.8889 20.9252 19.8889 19.8889 19.8889V19.8889" stroke="#333333" stroke-width="1.5" stroke-linejoin="round"/>
<path d="M12.1113 19.8889C12.1113 18.4223 12.1113 17.689 12.5669 17.2334C13.0226 16.7778 13.7558 16.7778 15.2224 16.7778H16.778C18.2446 16.7778 18.9779 16.7778 19.4335 17.2334C19.8891 17.689 19.8891 18.4223 19.8891 19.8889C19.8891 21.3555 19.8891 22.0888 19.4335 22.5444C18.9779 23 18.2446 23 16.778 23H15.2224C13.7558 23 13.0226 23 12.5669 22.5444C12.1113 22.0888 12.1113 21.3555 12.1113 19.8889Z" stroke="#333333" stroke-width="1.5" stroke-linejoin="round"/>
</svg>
